<?xml version="1.0" encoding="UTF-8" standalone="no"?><!DOCTYPE svg PUBLIC "-//W3C//DTD SVG 1.1//EN" "http://www.w3.org/Graphics/SVG/1.1/DTD/svg11.dtd"><svg width="100%" height="100%" viewBox="0 0 4267 4267" version="1.1" xmlns="http://www.w3.org/2000/svg" xmlns:xlink="http://www.w3.org/1999/xlink" xml:space="preserve" xmlns:serif="http://www.serif.com/" style="fill-rule:evenodd;clip-rule:evenodd;stroke-linejoin:round;stroke-miterlimit:2;"><g id="Fundo"><path d="M3389.573,321.511c95.499,-0.653 151.904,12.729 233.545,46.782c61.581,25.686 108.281,64.03 116.727,70.964c223.767,183.728 204.533,407.737 204.5,471.16c0.148,761.112 0.296,1522.223 0.443,2283.335c0.269,242.533 12.453,341.413 -81.343,495.14c-90.089,147.651 -238.858,217.064 -307.026,234.616c-78.912,20.318 -94.923,22.501 -341.842,21.42c-889.693,-3.895 -889.514,2.577 -1779.165,-0.095c-596.786,-1.792 -625.194,8.516 -737.673,-25.536c-53.101,-16.076 -121.284,-54.673 -137.743,-66.601c-196.568,-142.45 -237.328,-317.527 -238.258,-467.269c-2.754,-443.753 1.033,-443.557 -0.036,-887.509c-0.448,-186.378 -0.736,-1286.103 0.326,-1629.169c1.044,-337.423 268.642,-527.843 492.694,-544.375c75.786,-5.592 1998.931,-0.64 2574.85,-2.861Z" style="fill:#205085;"/><path d="M2349.529,722.62c7.423,18.365 15.413,7.658 98.748,32.506c376.824,112.357 519.808,336.836 541.058,332.62c2.539,-0.504 98.219,-37.502 193.039,20.809c118.322,72.764 146.737,256.052 19.137,359.454c-17.383,14.087 -2.485,22.73 13.168,84.048c1.497,5.865 36.086,120.922 41.747,266.686c9.762,251.4 -64.768,431.06 -64.271,437.581c0.967,12.684 59.467,38.062 84.979,124.911c31.087,105.827 -30.66,275.486 -216.705,281.31c-40.307,1.262 -70.237,-20.563 -82.739,-9.772c-41.328,35.67 -156.85,188.534 -458.93,303.499c-142.624,54.279 -164.407,36.285 -169.413,58.604c-2.243,10.001 -22.699,143.328 -176.312,175.319c-23.796,4.956 -186.07,23.921 -246.7,-142.003c-13.393,-36.652 -7.337,-43.381 -20.087,-46.094c-24.776,-5.273 -244.715,-43.237 -480.705,-223.073c-85.165,-64.9 -137.219,-129.632 -144.389,-130.342c-9.69,-0.96 -104.011,46.823 -213.713,-32.311c-103.561,-74.703 -122.493,-254.314 -4.272,-345.369c16.302,-12.556 11.53,-16.676 0.301,-51.891c-12.112,-37.983 -78.914,-247.484 -45.322,-496.278c17.013,-125.999 45.562,-210.98 51.536,-228.763c3.589,-10.684 7.062,-16.245 -2.406,-23.285c-156.89,-116.657 -87.626,-393.691 134.821,-395.395c50.583,-0.388 77.455,18.635 86.449,9.029c116.329,-124.251 260.021,-244.702 525.9,-328.588c56.271,-17.754 98.545,-18.924 101.371,-28.258c9.63,-31.799 13.474,-76.838 73.589,-129.864c115.712,-102.065 323.802,-52.06 360.123,124.909Z" style="fill:#fcfdfd;"/><path d="M1206.304,2221.12c-11.547,-2.275 -11.851,-1.634 -12.45,-2.453c-3.33,-4.548 40.689,-104.646 75.799,-187.02c67.564,-158.518 73.287,-159.853 64.763,-179.126c-60.611,-137.033 -133.4,-310.031 -139.251,-321.908c-9.993,-20.286 13.779,-14.446 15.281,-14.459c89.452,-0.759 189.295,-74.024 206.707,-176.828c16.445,-97.1 -23.252,-150.239 -28.099,-162.037c-6.25,-15.214 7.611,-7.628 92.173,-13.014c237.384,-15.12 237.385,-15.108 237.758,-15.161c9.53,-1.366 8.142,-4.873 185.338,-252.553c16.499,-23.062 25.895,-48.23 33.957,-31.352c52.97,110.903 192.102,147.842 288.513,98.807c104.584,-53.192 99.464,-125.224 115.682,-98.618c23.359,38.324 188.742,273.177 198.634,280.453c13.999,10.296 305.322,20.917 331.915,21.886c23.791,0.867 -24.579,30.136 -27.926,121.893c-2.946,80.755 42.001,139.989 58.913,156.446c83.338,81.097 159.166,69.242 168.287,70.431c5.348,0.697 -0.504,13.002 -0.987,14.018c-22.225,46.731 -65.895,150.864 -71.432,164.065c-64.418,153.606 -65.901,152.816 -70.776,166.439c-4.603,12.861 0.521,13.144 133.873,325.071c9.395,21.976 21.475,34.663 -2.582,34.715c-128.464,0.275 -219.76,116.721 -215.149,222.877c4.688,107.943 54.609,123.683 27.67,125.042c-66.86,3.374 -66.685,1.902 -133.415,6.295c-168.591,11.101 -168.598,9.48 -183.242,10.56c-19.755,1.457 -19.917,5.194 -71.505,78.55c-147.916,210.329 -147.572,215.488 -153.18,212.228c-2.174,-1.264 -1.72,-1.679 -14.155,-23.5c-39.633,-69.552 -138.766,-115.077 -223.813,-97.281c-130.465,27.299 -151.66,125.946 -161.751,120.326c-6.513,-3.627 -195.19,-280.775 -204.912,-286.114c-12.539,-6.886 -336.372,-21.122 -339.058,-23.397c-7.439,-6.299 -0.601,-7.052 4.362,-15.239c37.064,-61.132 39.516,-154.248 0.361,-219.21c-70.76,-117.398 -183.523,-110.657 -186.304,-110.834Z" style="fill:#1e4f84;"/><path d="M2167.073,2430.812c15.364,-58.831 16.528,-58.204 33.366,-116.724c11.1,-38.577 18.347,-34.307 47.076,-62.413c125.527,-122.808 123.82,-124.088 249.067,-246.792c36.598,-35.855 40.41,-47.885 51.682,-36.484c113.323,114.627 119.743,113.765 116.436,125.395c-1.872,6.583 -262.101,259.34 -306.077,306.625c-30.092,32.357 -36.409,22.592 -169.451,62.803c-38.096,11.514 -25.073,-20.206 -22.1,-32.41Z" style="fill:#fcfdfd;"/><path d="M1743.75,1820.295c142.036,-0.592 142.104,0.849 146.003,2.139c29.973,9.92 25.679,39.372 25.074,108.817c-1.473,168.883 5.543,175.788 -17.889,189.947c-16.199,9.788 -17.79,5.798 -236.524,5.119c-59.429,-0.185 -55.711,-23.837 -55.599,-70.062c0.49,-201.564 -0.146,-201.552 1.9,-208.22c10.404,-33.914 31.858,-27.84 137.036,-27.741Z" style="fill:#fbfcfc;"/><path d="M3147.245,1132.54c134.992,74.458 112.268,226.551 49.969,289.528c-21.3,21.532 14.862,-55.319 -38.104,-93.241c-26.876,-19.243 -39.06,-14.096 -119.488,-15.461c-6.46,-0.11 -75.426,-10.381 -97.182,54.959c-9.687,29.092 7.541,75.977 -17.212,43.746c-1.102,-1.435 -85.041,-89.715 -17.85,-209.346c42.197,-75.13 144.61,-116.211 239.867,-70.184Z" style="fill:#1c4e85;"/><path d="M1075.88,1406.256c0.084,1.227 3.827,23.226 -6.922,16.351c-13.978,-8.94 -99.271,-128.21 -11.078,-240.035c68.909,-87.374 217.87,-103.235 296.032,14.13c80.07,120.232 -25.838,248.992 -27.393,222.227c-0.982,-16.908 11.53,-72.979 -45.592,-99.404c-20.161,-9.327 -138.643,-7.806 -154.254,-1.919c-58.591,22.096 -50.578,81.86 -50.792,88.65Z" style="fill:#1c4e84;"/><path d="M1973.174,2885.556c2.084,-3.466 16.242,-27.016 30.123,-40.592c150.326,-147.019 380.385,27.425 295.193,207.405c-7.021,14.833 -32.668,49.198 -33.922,49.687c-21.425,8.343 20.963,-74.634 -54.848,-106.619c-23.019,-9.712 -138.079,-6.092 -149.205,-1.416c-64.452,27.091 -52.304,77.886 -51.073,103.766c1.019,21.418 -33.636,-28.207 -41.213,-45.464c-7.808,-17.783 -37.51,-89.884 4.946,-166.767Z" style="fill:#1b4e85;"/><path d="M2883.165,2418.992c22.084,-121.275 111.135,-159.316 185.57,-159.905c122.067,-0.966 252.862,151.519 130.48,306.941c-22.08,28.041 5.282,-42.516 -27.019,-80.001c-28.78,-33.398 -64.376,-27.85 -65.949,-27.834c-106.074,1.065 -107.925,-1.917 -130.412,12.764c-58.449,38.16 -25.724,94.541 -36.757,100.256c-2.793,1.447 -6.395,-3.024 -6.777,-3.499c-18.207,-22.597 -26.064,-36.136 -28.008,-39.486c-26.7,-46.008 -21.507,-98.037 -21.128,-109.237Z" style="fill:#1c4e85;"/><path d="M1950.892,760.39c0.121,-1.697 0.118,-7.816 1.487,-20.775c7.588,-71.792 65.384,-122.089 96.031,-136.509c174.908,-82.302 341.886,110.642 234.482,266.783c-9.54,13.869 -17.858,27.94 -24.326,21.048c-2.775,-2.958 13.913,-77.955 -47.823,-102.203c-13.937,-5.474 -135.915,-12.862 -162.004,2.335c-71.485,41.64 -24.646,122.804 -50.232,97.846c-46.227,-45.091 -47.432,-117.56 -47.615,-128.523Z" style="fill:#1b4d84;"/><path d="M1060.242,2556.388c-6.215,-8.125 -44.013,-57.535 -41.428,-120.97c8.069,-198 284.609,-247.479 356.946,-49.563c33.439,91.49 -38.16,191.25 -48.981,183.336c-5.829,-4.263 22.561,-111.818 -87.181,-111.139c-101.025,0.625 -104.556,1.936 -113.042,5.088c-84.492,31.379 -28.996,138.979 -62.618,97.841c-1.978,-2.421 -1.793,-2.228 -3.697,-4.594Z" style="fill:#1d4e84;"/><path d="M1643.157,1872.914c1.864,-19.772 9.938,-13.914 29.767,-13.872c27.775,0.001 55.549,0.002 83.324,0.003c112.333,-0.006 119.416,-3.311 120.223,9.737c2.391,38.677 0.405,191.627 0.188,208.289c-0.126,9.672 -3.821,10.379 -41.243,10.471c-14.66,0.036 -180.554,0.441 -183.25,0.306c-15.478,-0.779 -7.404,-10.397 -9.009,-214.934Z" style="fill:#1d4e83;"/><path d="M1083.868,2152.472c-76.168,-316.474 -13.534,-518.787 21.649,-642.256c7.394,-25.948 27.463,-0.437 27.847,0.68c2.171,6.312 0.945,635.895 0.837,691.19c-0.044,22.501 5.299,28.82 -15.951,35.481c-11.009,3.451 -17.078,-21.345 -34.382,-85.096Z" style="fill:#1e4f82;"/><path d="M3132.588,1518.775c0.834,-8.693 -1.494,-13.248 15.815,-19.346c10.784,-3.799 16.127,20.186 23.043,44.771c52.903,188.052 47.824,280.227 45.004,378.759c-4.092,142.976 -51.955,292.597 -57.69,307.613c-3.492,9.145 -26.315,8.231 -25.69,-11.817c1.033,-33.135 -0.62,-653.503 -0.482,-699.98Z" style="fill:#1d5085;"/><path d="M3098.855,2180.237c-2.924,-7.178 -1.549,-7.673 -34.936,-90.361c-37.397,-92.62 -41.437,-90.723 -78.893,-183.458c-11.789,-29.187 -21.165,-29.976 -8.502,-58.755c88.072,-200.166 112.721,-267.699 121.38,-291.424c1.244,-3.409 8.441,-6.913 7.328,4.289c-6.095,61.358 -0.689,158.275 -2.327,533.226c-0.232,53.199 2.977,80.977 -0.11,84.455c-0.981,1.105 -2.96,0.923 -3.941,2.028Z" style="fill:#1d5085;"/><path d="M1168.474,1556.479c6.175,21.396 15.606,54.071 106.217,257.303c16.3,36.56 25.075,51.768 22.401,58.85c-4.237,11.217 -105.259,231.162 -128.851,308.146l-3.291,-1.11c-1.189,-0.92 -2.378,-1.84 -3.567,-2.761c5.928,-48.27 3.717,-545.23 0.422,-612.121c1.17,-5.783 0.93,-5.86 1.263,-6.246c1.26,-1.46 4.146,-0.601 5.406,-2.061Z" style="fill:#1d5084;"/><path d="M1710.416,1425.44c-70.018,-0.04 -79.052,-2.9 -79.199,9.977c-0.126,10.999 0.21,10.886 0.85,137.495c0.596,117.944 -2.823,123.566 7.549,124.674c1.839,0.197 257.408,0.974 262.407,0.017c9.728,-1.862 7.597,-16.364 7.699,-74.685c0.111,-63.571 -4.913,-66.915 12.796,-83.751c12.315,-11.708 25.561,-27.136 25.887,-12.163c0.715,32.866 -0.3,145.741 -0.414,158.414c-0.544,60.527 -27.777,49.662 -116.741,50.197c-211.81,1.273 -213.529,0.853 -224.606,-8.977c-17.4,-15.441 -13.32,-24.837 -13.67,-199.551c-0.198,-98.735 -5.506,-132.323 29.666,-138.722c7.78,-1.416 292.634,-3.608 296.26,1.071c3.512,4.531 -0.451,4.674 -21.838,28.572c-8.342,9.322 -10.567,7.265 -186.646,7.434Z" style="fill:#fcfcfd;"/><path d="M1385.893,1133.727c-1.92,-3.796 -4.079,-4.935 -0.175,-6.437c14.57,-5.602 69.777,-36.716 75.749,-40.082c22.871,-12.89 259.169,-146.065 286.138,-160.669c129.513,-70.134 167.143,-100.646 142.63,-74.281c-27.746,29.843 -172.966,247.874 -184.64,257.241c-9.624,7.721 -251.403,10.101 -319.702,24.228Z" style="fill:#1b4e85;"/><path d="M2876.443,1130.14c-11.296,0.106 -10.941,-2.522 -140.932,-8.709c-90.124,-4.289 -172.337,-10.25 -174.667,-11.785c-13.043,-8.593 -85.772,-132.965 -183.11,-253.764c-0.479,-0.594 -10.867,-18.255 7.034,-6.445c58.414,38.537 305.076,171.431 395.799,224.67c85.72,50.302 89.246,43.978 95.356,50.053c0.341,0.339 0.038,0.443 0.519,5.98Z" style="fill:#1d4f85;"/><path d="M1334.951,2644.222c-9.914,-10.232 -10.684,-9.744 -11.606,-13.156c-1.149,-4.253 0.684,-6.48 1.039,-6.912c16.413,-19.945 35.062,0.871 69.348,19.629c86.738,47.455 215.772,120.778 234.466,131.402c22.037,12.522 22.358,11.874 276.967,153.839c18.33,10.221 12.289,35.047 -3.264,32.434c-35.327,-5.936 -73.166,-18.538 -79.391,-20.611c-151.99,-50.62 -304.708,-113.472 -487.559,-296.624Z" style="fill:#1b4e85;"/><path d="M2935.681,2618.372c16.245,13.254 2.933,19.604 -13.917,36.741c-221.056,224.819 -492.006,290.979 -540.126,302.729c-1.487,0.363 -28.98,11.468 -29.875,-1.547c-1.344,-19.563 -1.526,-22.098 16.066,-30.989c40.881,-20.662 40.222,-21.56 500.36,-278.354c51.558,-28.773 51.831,-35.236 67.492,-28.58Z" style="fill:#1b4e84;"/><path d="M1451.743,984.951c99.927,-75.829 232.847,-160.509 450.764,-210.098c16.943,-3.856 11.845,22.757 11.784,22.938c-2.373,7.014 -454.399,252.527 -563.139,319.381c-15.526,9.546 -35.328,-5.062 -23.247,-18.514c49.02,-54.583 113.286,-105.368 123.838,-113.707Z" style="fill:#1c4e84;"/><path d="M2872.602,2603.745c5.029,9.382 -1.107,8.411 -10.938,12.622c-22.095,9.463 -450.923,251.578 -476.59,268.248c-0.603,0.392 -21.65,10.916 -6.271,-6.439c46.494,-52.466 159.292,-227.399 179.21,-249.338c9.124,-10.05 251.517,-11.197 314.59,-25.093Z" style="fill:#1b4e85;"/><path d="M1893.084,2885.59c-2.738,1.068 -0.713,3.087 -3.479,4.165c-0.301,0.117 -1.124,0.438 -3.818,-1.32c-67.328,-43.95 -69.172,-40.456 -138.57,-80.929c-68.826,-40.139 -295.328,-165.622 -304.096,-171.003c-37.645,-23.108 -40.423,-19.649 -48.01,-23.85c-3.262,-1.806 -5.711,-9.049 6.92,-7.092c78.792,12.211 293.619,15.072 304.591,20.979c7.66,4.124 142.211,208.559 186.461,259.05Z" style="fill:#1c4f85;"/><path d="M2935.789,1115.036c-14.56,10.971 -16.532,1.431 -151.367,-73.677c-1.228,-0.684 -209.06,-118.202 -235.739,-132.423c-64.011,-34.12 -168.606,-91.958 -183.221,-100.04c-19.826,-10.963 -14.845,-15.413 -13.299,-27.635c1.67,-13.203 18.593,-5.861 62.106,5.398c319.572,82.686 525.864,308.13 527.883,319.633c0.849,4.835 -1.416,3.915 -6.362,8.743Z" style="fill:#1c4f85;"/><path d="M2285.413,1771.961c-228.036,0.524 -227.951,-1.84 -229.491,-2.488c-17.798,-7.486 -18.048,-36.936 12.831,-36.924c582.77,0.236 582.58,-2.265 633.141,0.763c19.657,1.177 35.987,37.565 -8.155,38.143c-32.663,0.428 -55.902,0.733 -408.326,0.505Z" style="fill:#f9fafb;"/><path d="M2720.554,1531.263c-5.338,21.916 -13.526,18.053 -105.967,18.207c-44.009,0.073 -538.353,0.897 -550.118,-0.018c-28.185,-2.192 -27.102,-38.658 0.123,-38.566c358.213,1.213 632.784,-2.813 646.079,3.177c9.917,4.469 7.92,6.618 9.882,17.2Z" style="fill:#fbfcfd;"/><path d="M2615.368,1886.303c43.783,-35.297 65.394,-3.986 115.211,45.63c43.284,43.11 40.409,56.942 -3.114,99.719c-32.909,32.345 -34.09,36.366 -42.124,33.075c-7.045,-2.886 -112.246,-109.716 -115.547,-113.527c-11.606,-13.399 -3.275,-16.551 45.574,-64.897Z" style="fill:#fcfcfd;"/><path d="M2193.118,3146.059c-11.213,3.229 -86.421,24.886 -145.511,-10.153c-9.846,-5.839 -6.415,-18.527 -6.917,-63.014c-0.651,-57.593 49.989,-47.461 115.579,-46.695c6.707,0.078 51.159,-6.742 65.765,26.245c3.734,8.434 2.123,24.252 3.236,66.314c0.49,18.532 -13.384,19.723 -32.152,27.304Z" style="fill:#1a4f84;"/><path d="M1286.517,2513.895c1.765,3.654 7.837,2.719 6.774,75.681c-0.077,5.299 3.754,12.903 -45.776,27.871c-30.617,9.253 -71.287,8.898 -107.324,-4.486c-6.136,-2.279 -31.419,-8.409 -31.386,-23.303c0.147,-64.592 0.486,-65.257 3.045,-70.268c15.568,-30.491 37.501,-25.69 115.229,-25.032c26.503,0.224 40.374,-4.341 59.439,19.537Z" style="fill:#1c4f85;"/><path d="M1288.791,1373.305c7.73,22.14 5.225,77.668 0.329,82.4c-4.863,4.7 -53.303,25.931 -91.35,22.971c-96.754,-7.527 -88.185,-34.082 -88.282,-43.249c-0.64,-60.268 -5.821,-86.884 59.289,-86.757c98.793,0.193 104.122,-1.334 120.014,24.635Z" style="fill:#1e5087;"/><path d="M3102.467,1474.542c-77.224,15.078 -126.37,-19.869 -127.706,-23.243c-1.819,-4.593 -1.798,-4.541 -1.887,-61.717c-0.025,-15.807 13.168,-40.537 41.711,-40.967c108.613,-1.636 111.69,0.211 119.923,5.153c24.741,14.852 23.076,38.759 21.791,85.816c-0.433,15.858 -2.676,21.842 -53.833,34.958Z" style="fill:#1c4e86;"/><path d="M2219.844,843.202c1.977,5.376 6.827,18.561 5.192,71.409c-0.598,19.315 -63.862,37.845 -110.207,31.622c-6.43,-0.863 -74.81,-10.045 -74.66,-31.671c0.463,-66.913 1.805,-69.143 4.873,-74.243c15.376,-25.557 31.557,-22.476 115.377,-21.691c33.659,0.315 41.472,-1.548 59.425,24.574Z" style="fill:#1b4f85;"/><path d="M3152.012,2518.785c5.176,15.323 7.97,76.27 -0.422,82.64c-12.424,9.431 -84.36,36.069 -144.957,12.25c-20.63,-8.109 -34.24,-13.557 -34.186,-24.065c0.303,-59.522 -1.907,-84.195 29.07,-93.534c8.66,-2.611 10.193,-3.073 113.048,-1.383c26.206,0.431 36.173,22.089 37.448,24.092Z" style="fill:#1b4e84;"/><path d="M1827.187,1535.518c10.654,-11 100.579,-103.847 134.476,-136.226c1.563,-1.493 14.913,-14.245 26.71,-4.076c20.311,17.509 -4.02,35.769 -7.761,39.569c-10.086,10.249 -81.306,82.617 -126.876,127.317c-68.957,67.641 -73.596,85.709 -96.061,63.472c-79.089,-78.287 -93.28,-86.056 -82.761,-101.352c21.825,-31.734 57.967,29.492 94.77,59.973c4.642,3.844 8.261,3.943 57.502,-48.678Z" style="fill:#fcfdfd;"/><path d="M2606.778,2102.601c-21.048,21.237 -258.062,260.369 -264.265,264.303c-6.255,3.967 -35.24,-20.83 -26.524,-30.259c2.764,-2.99 237.649,-237.506 258.324,-258.149c9.764,-9.749 16.477,-18.754 27.081,-8.987c1.243,1.145 11.848,10.914 14.872,15.01c4.891,6.626 -9.023,17.596 -9.489,18.081Z" style="fill:#1d4e84;"/><path d="M2531.262,2018.761c6.355,-6.252 7.829,-6.5 8.692,-6.646c6.55,-1.105 22.618,19.957 22.731,20.169c2.196,4.109 2.066,6.154 -77.606,86.132c-15.624,15.684 -188.431,189.155 -196.192,195.15c-7.053,5.45 -27.897,-19.099 -27.597,-23.888c0.458,-7.31 237.587,-235.076 269.971,-270.917Z" style="fill:#204f84;"/><path d="M1531.2,3670.138c3.835,-0.238 36.746,-2.281 37.094,-30.509c0.227,-18.409 -17.54,21.193 -57.766,3.883c-56.608,-24.359 -16.703,-122.56 41.888,-92.031c8.729,4.548 10.212,12.895 15.144,4.219c1.743,-3.066 -0.769,-9.14 17.879,-7.986c13.869,0.859 6.744,8.321 7.327,62.706c0.036,3.331 16.231,91.553 -70.053,80.457c-50.068,-6.439 -26.397,-27.163 -23.814,-28.652c2.305,-1.329 1.98,2.705 32.301,7.912Z" style="fill:#f8f9fa;"/><path d="M3003.72,2373.117c17.878,-78.291 95.362,-56.881 113.528,-24.336c49.466,88.621 -112.765,144.772 -113.528,24.336Z" style="fill:#fcfcfc;"/><path d="M2131.204,2974.257c-77.864,-7.323 -72.169,-101.561 -20.895,-118.306c92.497,-30.206 120.183,113.911 20.895,118.306Z" style="fill:#fcfcfc;"/><path d="M1156.569,1276.789c-47.506,-62.434 17.779,-119.134 69.618,-97.661c81.385,33.713 10.371,169.216 -69.618,97.661Z" style="fill:#fcfcfc;"/><path d="M2160.046,759.765c-76.51,35.31 -123.879,-76.545 -53.101,-110.202c56.014,-26.636 135.435,53.583 53.101,110.202Z" style="fill:#fdfdfd;"/><path d="M1146.558,2406.9c-28.262,-63.776 48.176,-113.56 96.304,-70.449c64.374,57.664 -43.472,163.197 -96.304,70.449Z" style="fill:#fbfbfc;"/><path d="M3026.273,1282.23c-54.253,-51.034 -0.576,-122.306 55.14,-105.714c87.62,26.094 30.69,165.452 -55.14,105.714Z" style="fill:#fcfdfc;"/><path d="M1960.462,3653.301c-0.976,-0.134 -12.197,-1.671 -12.197,-1.671c-1.423,-1.424 -1.62,-3.83 -3.121,-5.172c-7.663,-6.853 -12.55,11.206 -38.82,8.926c-69.08,-5.997 -51.985,-127.251 16.617,-107.555c15.868,4.556 17.122,14.83 21.88,10.314c7.139,-6.775 -6.72,-50.603 11.468,-51.255c20.382,-0.73 16.32,8.01 16.183,28.528c-0.124,18.553 -0.196,86.787 -0.172,99.997c0.023,12.85 0.726,15.993 -11.838,17.888Z" style="fill:#fbfcfc;"/><path d="M2252.085,1962.9c29.308,0.1 65.726,-5.252 66.885,18.337c1.241,25.254 -24.988,20.134 -121.054,20.564c-142.75,0.64 -154.893,2.966 -154.318,-20.555c0.437,-17.882 22.654,-18.067 25.131,-18.087c14.668,-0.122 14.397,0.196 183.357,-0.259Z" style="fill:#fcfcfe;"/><path d="M2582.629,3639.585c-0.273,6.758 2.652,16.134 -18.256,13.675c-19.77,-2.325 11.761,-88.805 -32.984,-83.565c-34.417,4.031 -10.612,79.05 -24.849,83.239c-23.058,6.785 -20.159,-6.001 -20.243,-30.015c-0.036,-10.344 6.526,-57.02 -25.747,-53.244c-18.122,2.12 -18.509,21.547 -18.557,23.971c-0.825,41.46 3.696,59.537 -10.704,59.601c-20.909,0.093 -15.077,-9.298 -15.03,-30.305c0.149,-66.728 -3.989,-75.022 10.819,-75.227c8.917,-0.123 9.522,-0.904 15.679,5.424c7.625,7.836 8.604,-7.422 30.145,-7.008c30.356,0.583 28.63,20.996 40.236,12.604c17.807,-12.876 17.867,-16.414 39.224,-12.26c37.078,7.212 30.296,52.825 30.269,93.111Z" style="fill:#f9fafb;"/><path d="M1339.601,3653.771c-20.197,1.264 -10.326,-11.798 2.355,-39.967c40.312,-89.543 38.001,-99.604 55.95,-99.81c15.013,-0.172 14.759,4.236 35.618,51.412c14.459,32.7 13.919,32.588 28.485,65.169c3.218,7.199 13.41,22.505 2.968,23.158c-37.706,2.36 -21.391,-26.848 -37.441,-32.075c-4.057,-1.321 -30.09,-0.551 -50.435,-1.004c-14.766,-0.329 -13.21,4.186 -18.754,18.069c-4.961,12.425 -5.244,14.125 -18.746,15.048Z" style="fill:#f9fafa;"/><path d="M2077.05,3653.355c-6.83,-0.974 -7.176,0.457 -11.173,-3.042c-1.373,-1.202 -2.811,-4.937 -9.389,-1.923c-57.417,26.306 -69.947,-26.787 -56.692,-44.922c21.835,-29.874 75.639,-1.362 63.864,-21.792c-14.321,-24.846 -48.114,-2.701 -54.957,-11.625c-12.628,-16.468 16.153,-21.559 18.41,-21.958c74.469,-13.172 63.064,55.174 63.016,87.33c-0.02,13.301 0.427,16.768 -13.079,17.931Z" style="fill:#fbfbfc;"/><path d="M2781.727,3602.494c1.72,-1.495 8.477,-11.707 28.687,-12.963c16.342,-1.015 40.788,6.102 32.596,-7.939c-14.211,-24.358 -47.006,-3.301 -54.622,-11.817c-2.215,-2.476 -15.304,-22.693 34.521,-23.083c54.417,-0.425 48.124,45.976 47.644,97.123c-0.06,6.364 0.602,7.905 -5.702,9.344c-16.11,3.677 -21.161,-8.708 -29.081,-4.612c-40.653,21.023 -76.791,-10.331 -54.043,-46.054Z" style="fill:#f9fafa;"/><path d="M2377.085,3653.717c-7.361,-0.653 -7.198,-0.758 -13.2,-5.069c-4.735,-3.401 -42.715,20.945 -64.141,-6.299c-11.561,-14.7 -10.332,-61.323 52.246,-52.07c9.972,1.475 15.734,0.67 10.744,-8.151c-16.433,-29.052 -51.137,3.151 -57.12,-17.319c-5.815,-19.894 60.268,-27.245 76.159,-0.566c3.269,5.489 9.504,15.956 7.542,79.498c-0.376,12.166 -7.061,9.371 -12.23,9.976Z" style="fill:#f9fafb;"/><path d="M1621.853,3627.627c-33.267,-78.587 75.133,-110.638 93.378,-46.582c12.889,45.255 -19.458,24.308 -67.738,27.975c-6.31,0.479 -5.519,11.368 4.428,18.265c29.876,20.716 41.645,-14.411 57.305,4.926c8.838,10.913 -50.44,51.324 -87.372,-4.584Z" style="fill:#fafbfb;"/><path d="M2260.414,3574.696c3.559,0.556 13.465,-3.179 12.24,14.87c-1.408,20.752 -69.654,-1.886 -70.447,16.698c-1.684,39.457 4.222,45.654 -8.32,47.002c-21.791,2.343 -16.762,-8.395 -16.873,-30.35c-0.523,-104.203 -0.648,-106.337 4.38,-107.941c1.052,-0.336 92.23,-2.704 97.15,2.293c4.028,4.091 4.467,20.003 -5.763,20.657c-21.393,1.367 -67.972,-4.746 -70.139,5.946c-8.457,41.728 15.268,31.025 57.77,30.826Z" style="fill:#fafafb;"/><path d="M2710.242,2001.918c-14.524,14.738 -17.635,22.075 -32.848,8.16c-3.194,-2.922 -62.641,-60.385 -64.622,-65.522c-3.381,-8.771 29.174,-44.005 42.58,-36.609c3.467,1.913 65.86,60.58 68.289,68.899c1.889,6.469 0.302,10.491 -13.398,25.072Z" style="fill:#1b4e82;"/><path d="M1827.11,3653.243c-20.231,-1.132 -13.242,-10.164 -13.212,-30.323c0.013,-8.65 7.207,-59.818 -28.222,-53.064c-34.564,6.589 -6.704,80.331 -25.087,83.042c-22.337,3.294 -18.541,-7.512 -18.55,-29.99c-0.002,-4.998 -0.021,-54.957 -0.188,-62.478c-0.456,-20.584 19.547,-14.592 25.737,-7.174c7.212,8.642 10.846,-10.015 38.835,-6.563c36.767,4.535 34.501,40.721 32.875,97.043c-0.328,11.345 -8.331,9.034 -12.189,9.507Z" style="fill:#fafbfb;"/><path d="M2244.257,2322.421c62.943,66.426 79.914,73.074 62.803,77.442c-54.45,13.898 -55.274,13.482 -59.606,11.294c-1.194,-0.603 -31.435,-29.012 -32.064,-30.342c-2.475,-5.229 13.151,-66.599 19.996,-66.024c0.933,0.078 0.647,0.557 8.871,7.631Z" style="fill:#1d4f81;"/><path d="M2669.875,3639.56c-0.7,-115.239 -0.951,-115.166 -0.539,-124.901c0.353,-8.355 11.696,-7.506 16.003,-7.251c12.679,0.752 9.48,20.338 9.578,57.176c0.215,80.43 3.243,88.155 -9.449,88.495c-17.128,0.459 -13.653,-6.162 -15.593,-13.519Z" style="fill:#fcfdfd;"/><path d="M2910.394,3653.091c-17.651,-1.372 -13.243,-8.32 -13.182,-26.008c0.241,-70.125 -2.995,-78.198 9.044,-79.078c20.786,-1.52 15.806,11.072 16.597,12.452c3.185,5.558 12.824,-7.826 17.734,-10.662c23.443,-13.539 23.045,19.047 15.011,21.729c-19.808,6.613 -32.117,5.458 -32.507,51.394c-0.168,19.809 6.972,28.273 -12.697,30.173Z" style="fill:#fafbfb;"/><path d="M1892.737,3619.404c-18.799,-33.899 13.556,-56.786 33.927,-49.403c43.408,15.732 5.755,94.488 -33.927,49.403Z" style="fill:#235183;"/><path d="M2726.942,3639.585c-0.486,-84.684 -1.03,-84.62 -0.043,-87.578c2.127,-6.374 18.449,-4.45 20.751,-3.472c7.02,2.981 6.33,5.252 4.549,95.222c-0.161,8.113 -4.72,8.99 -8.337,9.381c-20.603,2.232 -16.762,-9.683 -16.92,-13.554Z" style="fill:#fcfcfc;"/><path d="M2638.19,3639.556c-0.701,15.249 -4.704,16.819 -19.606,13.219c-9.075,-2.192 -5.903,-35.599 -5.935,-88.185c-0.006,-9.534 -3.355,-19.184 18.605,-16.705c8.833,0.997 6.864,8.645 6.935,91.671Z" style="fill:#fafbfb;"/><path d="M1513.906,3580.794c26.513,-29.009 47.239,-3.531 51.598,8.488c16.137,44.501 -79.841,51.012 -51.598,-8.488Z" style="fill:#245083;"/><path d="M1414.058,3581.474c3.759,10.734 7.899,16.488 -3.638,16.486c-0.682,-0 -27.162,1.194 -30.898,-2.981c-3.638,-4.065 -0.489,-4.773 13.113,-39.359c0.285,-0.724 4.502,-11.449 9.148,-3.29c1.252,2.198 0.367,2.545 12.275,29.144Z" style="fill:#225383;"/><path d="M2810.991,3608.136c6.44,-0.824 36.668,-7.457 33.136,10.686c-6.534,33.556 -74.105,9.867 -33.136,-10.686Z" style="fill:#275587;"/><path d="M2031.829,3607.925c2.218,-0.339 19.691,-3.011 28.044,-0.216c6.569,2.198 5.061,10.121 4.88,11.072c-6.162,32.365 -72.991,11.781 -32.924,-10.856Z" style="fill:#235489;"/><path d="M2331.837,3608.074c2.334,-0.314 24.36,-3.272 29.405,1.352c4.697,4.305 1.629,12.007 0.721,14.217c-11.116,27.077 -69.366,4.957 -30.126,-15.57Z" style="fill:#245489;"/><path d="M1681.283,3592.313c-1.222,-0.005 -31.671,0.091 -34.285,-0.659c-7.287,-2.093 -2.896,-9.303 -2.468,-10.007c21.959,-36.059 71.852,10.537 36.752,10.666Z" style="fill:#2d598e;"/><path d="M2754.425,3518.748c-0.035,0.151 2.526,15.385 -19.03,12.713c-18.208,-2.257 -13.048,-31.48 12.368,-24.697c7.018,1.873 6.399,10.75 6.662,11.983Z" style="fill:#fdfdfd;"/><path d="M2611.002,3518.762c0.262,-1.743 -1.151,-10.33 7.884,-11.397c31.228,-3.689 21.288,22.176 12.341,23.74c-14.667,2.565 -18.809,2.491 -20.226,-12.343Z" style="fill:#fafbfb;"/><path d="M2210.545,2418.67c0.006,1.489 1.529,2.706 1.534,4.194c0.036,9.206 -19.01,11.69 -12.536,-7.454c2.404,-7.109 10.416,2.553 11.002,3.259Z" style="fill:#1d4f82;"/><path d="M1168.474,1556.479c-1.26,1.46 -4.146,0.601 -5.406,2.061c-0.333,0.386 -0.094,0.463 -1.263,6.246c0.105,-5.111 -3.798,-21.09 6.67,-8.307Z" style="fill:#b1c5dc;"/></g></svg>